Coordinates
version=1
nRows=4
nColumns=63
inDegrees=yes

Units are S.I. units (second, meters, Newtons, ...)
If the header above contains a line with 'inDegrees', this indicates whether rotational values are in degrees (yes) or radians (no).

endheader
time	pelvis_tilt	pelvis_list	pelvis_rotation	pelvis_tx	pelvis_ty	pelvis_tz	hip_flexion_r	hip_adduction_r	hip_rotation_r	knee_angle_r	knee_angle_r_beta	ankle_angle_r	subtalar_angle_r	mtp_angle_r	hip_flexion_l	hip_adduction_l	hip_rotation_l	knee_angle_l	knee_angle_l_beta	ankle_angle_l	subtalar_angle_l	mtp_angle_l	L5_S1_Flex_Ext	L5_S1_Lat_Bending	L5_S1_axial_rotation	L4_L5_Flex_Ext	L4_L5_Lat_Bending	L4_L5_axial_rotation	L3_L4_Flex_Ext	L3_L4_Lat_Bending	L3_L4_axial_rotation	L2_L3_Flex_Ext	L2_L3_Lat_Bending	L2_L3_axial_rotation	L1_L2_Flex_Ext	L1_L2_Lat_Bending	L1_L2_axial_rotation	L1_T12_Flex_Ext	L1_T12_Lat_Bending	L1_T12_axial_rotation	Abs_r3	Abs_r2	Abs_r1	Abs_t1	Abs_t2	neck_flexion	neck_bending	neck_rotation	arm_flex_r	arm_add_r	arm_rot_r	elbow_flex_r	pro_sup_r	wrist_flex_r	wrist_dev_r	arm_flex_l	arm_add_l	arm_rot_l	elbow_flex_l	pro_sup_l	wrist_flex_l	wrist_dev_l
      1.79661017	      6.04576684	      4.30472335	     88.12308541	      0.11641560	      0.87480781	      0.68005647	     -4.57700639	      1.22214458	    -11.38039232	     18.55947708	      0.32392398	     19.91391294	     18.36039253	      0.00000000	     -9.48475250	     -4.34335918	     -4.15096359	     10.67354458	      0.18628850	     11.90744051	    -18.05678779	      0.00000000	     -0.41293556	      0.01979863	     -4.32837303	     -0.76686263	      0.02633218	     -4.59889635	     -0.67841183	      0.04813839	     -4.59889635	     -0.47194405	      0.04813839	     -3.78732640	     -0.38345196	      0.04037336	     -3.51680309	     -0.23595138	      0.03066808	     -3.24627977	     -2.94955742	      0.22396605	    -24.07311230	      0.00000000	      0.00000000	    -10.85710583	     16.88319574	      0.19280286	     95.59477938	    -49.51239346	      1.28456048	    130.89174626	     43.44914695	     -0.25360956	     32.84321517	      6.18009550	    -12.74485496	     98.10861250	      5.23772835	      7.26202144	    -12.63611236	    -13.49924890
      1.81355932	      6.53139647	      4.29358414	     86.98716626	      0.11613570	      0.87483236	      0.68089121	     -4.40128008	      1.54288853	    -10.22571775	     18.65320511	      0.32555985	     19.72494584	     18.41817594	      0.00000000	     -9.68047934	     -4.57723890	     -5.00633505	     10.56233141	      0.18434746	     11.91299607	    -18.11997679	      0.00000000	     -0.42280694	      0.06815440	     -4.14667369	     -0.78519477	      0.09064535	     -4.40584079	     -0.69462952	      0.16571061	     -4.40584079	     -0.48322605	      0.16571061	     -3.62833948	     -0.39261853	      0.13898045	     -3.36917237	     -0.24159189	      0.10557116	     -3.11000527	     -3.02006770	      0.77097619	    -23.06255505	      0.00000000	      0.00000000	    -11.73539784	     15.31109509	     -0.90908192	     90.52402727	    -51.52108029	     -1.95307376	    134.30804659	     31.24518256	     -4.33403901	     33.29187678	      7.57479741	    -12.53951734	    102.47468742	      4.89619580	      7.28377072	    -12.53141870	    -11.93395194
      1.83050847	      6.66142912	      4.34498010	     85.71852945	      0.11672446	      0.87532806	      0.68248671	     -4.21992133	      1.50298895	     -9.00394230	     18.78771151	      0.32790742	     19.60228920	     18.48305074	      0.00000000	     -9.91994361	     -4.44597564	     -6.09691742	     10.41436865	      0.18176502	     11.66045518	    -18.09252642	      0.00000000	     -0.43818607	      0.05951723	     -3.93904512	     -0.81375535	      0.07915792	     -4.18523544	     -0.71989589	      0.14471020	     -4.18523544	     -0.50080286	      0.14471020	     -3.44666448	     -0.40689958	      0.12136754	     -3.20047416	     -0.25037952	      0.09219219	     -2.95428384	     -3.12991928	      0.67327082	    -21.90778725	      0.00000000	      0.00000000	    -12.54856861	     14.31627920	     -1.80110972	     83.27862938	    -51.90691849	     -7.60219731	    137.69309444	     28.88188910	     -4.79972332	     33.24835551	      8.87592639	    -12.68773758	    104.35262214	      4.86085431	      7.95395087	    -11.88769243	    -11.13240764
      1.84745763	      6.78676479	      4.34735035	     84.27990613	      0.11781735	      0.87579347	      0.68444872	     -3.93903984	      1.45020208	     -7.78813526	     18.97861511	      0.33123932	     19.53001969	     18.61786782	      0.00000000	    -10.13739334	     -4.29161206	     -7.33605252	     10.22799314	      0.17851216	     11.37522753	    -18.17736412	      0.00000000	     -0.45328878	      0.04237882	     -3.53482010	     -0.84180259	      0.05636383	     -3.75574636	     -0.74470813	      0.10303987	     -3.75574636	     -0.51806374	      0.10303987	     -3.09296759	     -0.42092396	      0.08641890	     -2.87204133	     -0.25900921	      0.06564480	     -2.65111508	     -3.23779641	      0.47939772	    -19.65960897	      0.00000000	      0.00000000	    -12.69420858	     14.11081267	     -3.83766194	     74.98912331	    -52.53139636	    -14.38985039	    141.05715687	     26.22677618	     -5.25758971	     32.66531572	     10.61498973	    -12.75846629	    106.47580070	      4.88272958	      7.88073209	    -10.21958099	    -10.33752646
